<svg width="1356" height="874" viewBox="0 0 1356 874" fill="none" xmlns="http://www.w3.org/2000/svg">
<g clip-path="url(#clip0)">
<path d="M1088.95 812.891C1080.15 843.672 1049.31 862.908 1049.31 862.908C1049.31 862.908 1032.74 832.238 1041.54 801.457C1050.34 770.676 1081.18 751.44 1081.18 751.44C1081.18 751.44 1097.75 782.11 1088.95 812.891Z" fill="#3F3D56"/>
<path d="M1075.6 806.379C1050.95 828.746 1048.19 862.89 1048.19 862.89C1048.19 862.89 1085.4 860.771 1110.05 838.404C1134.71 816.037 1137.46 781.893 1137.46 781.893C1137.46 781.893 1100.25 784.013 1075.6 806.379Z" fill="#8AA0AA"/>
<path d="M182.386 696.453H228.812L343.218 655.34C343.218 655.34 424.463 624.886 417.831 682.748C411.198 740.611 399.592 818.268 399.592 818.268C399.592 818.268 363.115 803.041 343.218 807.609C323.321 812.177 336.586 714.725 336.586 714.725C336.586 714.725 174.096 786.291 159.174 777.155C144.251 768.019 140.935 704.066 140.935 704.066L182.386 696.453Z" fill="#8AA0AA"/>
<path opacity="0.1" d="M182.386 696.453H228.812L343.218 655.34C343.218 655.34 424.463 624.886 417.831 682.748C411.198 740.611 399.592 818.268 399.592 818.268C399.592 818.268 363.115 803.041 343.218 807.609C323.321 812.177 336.586 714.725 336.586 714.725C336.586 714.725 174.096 786.291 159.174 777.155C144.251 768.019 140.935 704.066 140.935 704.066L182.386 696.453Z" fill="#8AA0AA"/>
<path d="M255.53 562.934L311.715 637.068L442.702 737.565C442.702 737.565 563.74 763.451 547.159 781.723C530.579 799.996 429.437 763.451 429.437 763.451C429.437 763.451 278.554 662.953 273.58 655.34C268.605 647.727 213.89 576.16 213.89 576.16L255.53 562.934Z" fill="#A0616A"/>
<path opacity="0.1" d="M255.53 562.934L311.715 637.068L442.702 737.565C442.702 737.565 563.74 763.451 547.159 781.723C530.579 799.996 429.437 763.451 429.437 763.451C429.437 763.451 278.554 662.953 273.58 655.34C268.605 647.727 213.89 576.16 213.89 576.16L255.53 562.934Z" fill="black"/>
<path d="M222.18 503.071L258.657 568.547C258.657 568.547 250.367 600.523 237.102 603.569C223.838 606.614 167.464 563.979 167.464 563.979L222.18 503.071Z" fill="#F0E3D8"/>
<path opacity="0.1" d="M222.18 503.071L258.657 568.547C258.657 568.547 250.367 600.523 237.102 603.569C223.838 606.614 167.464 563.979 167.464 563.979L222.18 503.071Z" fill="black"/>
<path d="M667.187 662.552L677.962 703.37C678.082 703.825 678.064 704.302 677.908 704.748L629.03 845.022C628.837 845.577 628.441 846.055 627.911 846.375C627.38 846.696 626.746 846.839 626.114 846.782C625.482 846.725 624.89 846.47 624.438 846.061C623.985 845.652 623.699 845.112 623.628 844.533L616.866 789.887C616.821 789.525 616.861 789.157 616.985 788.81L661.849 662.363C662.037 661.835 662.406 661.378 662.902 661.061C663.397 660.744 663.992 660.583 664.596 660.605C665.2 660.626 665.779 660.828 666.247 661.179C666.715 661.531 667.045 662.013 667.187 662.552Z" fill="#2F2E41"/>
<path d="M663.224 665.999L673.171 701.021L630.062 828.927L620.114 789.337L663.224 665.999Z" fill="#F0E3D8"/>
<path d="M446.018 856.335C447.676 860.903 618.456 854.812 620.114 853.29C621.559 851.383 622.782 849.341 623.761 847.199C625.32 844.154 626.746 841.108 626.746 841.108L620.114 791.804L450.992 786.291C450.992 786.291 446.764 828.074 445.901 847.199C445.686 852.026 445.686 855.421 446.018 856.335Z" fill="#3F3D56"/>
<path opacity="0.1" d="M598.559 798.473L601.875 841.108H527.262V798.473H598.559Z" fill="black"/>
<path opacity="0.1" d="M502.392 812.177L502.837 812.096L500.734 830.45H459.283V812.177H502.392Z" fill="black"/>
<path opacity="0.1" d="M446.018 856.335C447.676 860.903 618.456 854.812 620.114 853.29C621.559 851.383 622.782 849.341 623.762 847.199H445.902C445.686 852.026 445.686 855.421 446.018 856.335Z" fill="black"/>
<path d="M247.051 481.753C288.258 481.753 321.663 451.075 321.663 413.232C321.663 375.389 288.258 344.711 247.051 344.711C205.843 344.711 172.438 375.389 172.438 413.232C172.438 451.075 205.843 481.753 247.051 481.753Z" fill="#A0616A"/>
<path d="M242.077 474.14C242.077 474.14 217.206 513.73 212.231 535.048C207.257 556.365 137.619 492.412 137.619 492.412L128.5 470.333C128.5 470.333 193.993 442.163 189.019 419.323C184.044 396.483 242.077 474.14 242.077 474.14Z" fill="#A0616A"/>
<path d="M255.341 592.91L323.321 675.135L485.811 786.291C485.811 786.291 603.533 809.132 577.004 825.881C550.475 842.631 474.205 810.654 474.205 810.654C474.205 810.654 310.057 729.952 275.238 696.453C240.418 662.954 175.754 606.614 175.754 606.614L255.341 592.91Z" fill="#A0616A"/>
<path d="M164.148 720.816L184.045 749.747L302.79 715.439C328.845 707.911 357.415 710.681 380.524 724.051C401.25 736.043 414.515 755.076 384.67 783.246C324.979 839.585 285.186 809.132 285.186 809.132C285.186 809.132 84.561 895.925 51.3999 853.29C18.2387 810.654 16.5807 789.337 16.5807 789.337C16.5807 789.337 144.251 716.248 164.148 720.816Z" fill="#8AA0AA"/>
<path d="M412.857 821.313C412.857 821.313 465.914 853.29 402.908 868.517C339.902 883.744 293.476 862.426 293.476 862.426C293.476 862.426 238.76 862.426 238.76 836.54C238.76 810.654 256.999 807.609 256.999 807.609L313.373 815.222C313.373 815.222 381.353 798.473 412.857 821.313Z" fill="#F0E3D8"/>
<path d="M308.259 395.995C313.337 398.075 318.373 400.535 323.894 401.139C329.415 401.742 335.703 399.972 338.315 395.465C339.726 393.03 339.887 390.166 339.953 387.409C340.153 379.048 339.494 370.009 333.725 363.538C330.053 359.42 324.693 356.823 320.892 352.805C318.169 349.926 316.356 346.437 314.405 343.071C307.013 330.321 296.068 318.068 280.857 314.392C274.505 312.857 267.842 312.932 261.275 313.017L222.97 313.513C216.771 313.594 210.477 313.687 204.543 315.335C192.214 318.758 183.237 328.28 175.015 337.386C168.864 344.198 162.697 351.081 158.08 358.849C151.462 370.186 148.115 382.89 148.359 395.751C148.308 399.049 148.772 402.337 149.736 405.515C150.865 408.429 152.263 411.249 153.915 413.945C161.099 426.902 165.364 443.087 157.274 455.586C171.327 450.314 185.232 443.402 194.502 432.362C198.649 427.424 201.901 421.643 207.428 418.018C212.955 414.394 221.96 414.08 225.506 419.399C226.725 421.55 227.352 423.943 227.334 426.368C227.593 430.361 227.586 434.507 229.429 438.131C231.272 441.754 235.663 444.678 239.855 443.594C247.074 441.726 246.383 431.551 251.943 426.929C256.166 423.419 262.68 424.09 268.105 422.496C274.426 420.64 279.168 415.611 281.871 410.045C283.925 405.814 283.895 394.742 287.782 392.451C292.656 389.578 303.741 394.146 308.259 395.995Z" fill="#3F3D56"/>
<path d="M122.577 463.11C125.933 462.288 129.467 462.296 132.819 463.134C143.463 465.758 167.322 472.705 172.438 483.276C179.07 496.98 202.283 518.298 202.283 518.298C202.283 518.298 233.786 547.229 227.154 567.024C220.522 586.819 195.651 609.659 195.651 609.659C195.651 609.659 202.283 704.066 169.122 728.429C135.961 752.792 122.696 736.043 122.696 758.883C122.696 781.723 19.8967 853.29 0 809.132C0 809.132 9.94836 726.906 6.63224 697.975C3.36394 669.461 8.14855 491.56 122.577 463.11Z" fill="#F0E3D8"/>
<path d="M175.754 501.548C175.754 501.548 276.896 570.069 258.657 599.001C258.657 599.001 197.309 626.409 184.044 624.886C170.78 623.364 119.38 570.069 106.116 565.501C92.8513 560.933 86.2191 478.708 175.754 501.548Z" fill="#F0E3D8"/>
<path d="M627.634 350.024C672.872 350.024 709.544 316.346 709.544 274.802C709.544 233.258 672.872 199.58 627.634 199.58C582.397 199.58 545.725 233.258 545.725 274.802C545.725 316.346 582.397 350.024 627.634 350.024Z" fill="#F0E3D8"/>
<path d="M1304.17 177.109H845.158V88.9026H1304.17V177.109ZM847.18 175.252H1302.14V90.7595H847.18V175.252Z" fill="#3F3D56"/>
<path d="M1270.8 106.544H813.816V192.893H1270.8V106.544Z" fill="#8AA0AA"/>
<path d="M524.934 24.1407C528.842 24.1407 532.011 21.2308 532.011 17.6412C532.011 14.0516 528.842 11.1417 524.934 11.1417C521.025 11.1417 517.856 14.0516 517.856 17.6412C517.856 21.2308 521.025 24.1407 524.934 24.1407Z" fill="#8AA0AA"/>
<path d="M549.198 24.1407C553.107 24.1407 556.276 21.2308 556.276 17.6412C556.276 14.0516 553.107 11.1417 549.198 11.1417C545.29 11.1417 542.121 14.0516 542.121 17.6412C542.121 21.2308 545.29 24.1407 549.198 24.1407Z" fill="#8AA0AA"/>
<path d="M573.463 24.1407C577.372 24.1407 580.54 21.2308 580.54 17.6412C580.54 14.0516 577.372 11.1417 573.463 11.1417C569.554 11.1417 566.386 14.0516 566.386 17.6412C566.386 21.2308 569.554 24.1407 573.463 24.1407Z" fill="#8AA0AA"/>
<path d="M1356 508.811H504.713V0H1356V508.811ZM506.735 506.954H1353.98V1.85698H506.735V506.954Z" fill="#3F3D56"/>
<path d="M1354.99 28.1656H505.724V30.0226H1354.99V28.1656Z" fill="#3F3D56"/>
<path d="M526.956 22.2836C525.356 22.2836 523.792 21.848 522.462 21.0318C521.132 20.2156 520.095 19.0556 519.483 17.6983C518.871 16.341 518.711 14.8475 519.023 13.4066C519.335 11.9658 520.105 10.6422 521.237 9.60344C522.368 8.56463 523.809 7.85719 525.378 7.57058C526.947 7.28398 528.573 7.43108 530.051 7.99328C531.529 8.55547 532.792 9.50753 533.681 10.729C534.57 11.9506 535.044 13.3867 535.044 14.8558C535.042 16.8251 534.189 18.713 532.672 20.1055C531.156 21.4981 529.1 22.2814 526.956 22.2836ZM526.956 9.28483C525.756 9.28483 524.583 9.61156 523.586 10.2237C522.588 10.8358 521.811 11.7059 521.351 12.7239C520.892 13.7418 520.772 14.8619 521.006 15.9426C521.24 17.0232 521.818 18.0159 522.666 18.795C523.515 19.5741 524.596 20.1047 525.772 20.3196C526.949 20.5346 528.169 20.4243 529.277 20.0026C530.386 19.581 531.333 18.8669 532 17.9508C532.666 17.0347 533.022 15.9576 533.022 14.8558C533.02 13.3788 532.38 11.9628 531.243 10.9184C530.106 9.87403 528.564 9.28655 526.956 9.28483V9.28483Z" fill="#3F3D56"/>
<path d="M551.221 22.2836C549.621 22.2836 548.057 21.848 546.727 21.0318C545.397 20.2156 544.36 19.0556 543.748 17.6983C543.136 16.341 542.976 14.8475 543.288 13.4066C543.6 11.9658 544.37 10.6422 545.501 9.60344C546.632 8.56463 548.074 7.85719 549.643 7.57058C551.212 7.28398 552.838 7.43108 554.316 7.99328C555.794 8.55547 557.057 9.50753 557.946 10.729C558.834 11.9506 559.309 13.3867 559.309 14.8558C559.306 16.8251 558.453 18.713 556.937 20.1055C555.421 21.4981 553.365 22.2814 551.221 22.2836V22.2836ZM551.221 9.28483C550.021 9.28483 548.848 9.61156 547.85 10.2237C546.853 10.8358 546.075 11.7059 545.616 12.7239C545.157 13.7418 545.037 14.8619 545.271 15.9426C545.505 17.0232 546.083 18.0159 546.931 18.795C547.779 19.5741 548.86 20.1047 550.037 20.3196C551.214 20.5346 552.434 20.4243 553.542 20.0026C554.65 19.581 555.598 18.8669 556.264 17.9508C556.931 17.0347 557.287 15.9576 557.287 14.8558C557.285 13.3788 556.645 11.9628 555.508 10.9184C554.371 9.87403 552.829 9.28655 551.221 9.28483V9.28483Z" fill="#3F3D56"/>
<path d="M575.485 22.2836C573.886 22.2836 572.322 21.848 570.992 21.0318C569.662 20.2156 568.625 19.0556 568.013 17.6983C567.401 16.341 567.24 14.8475 567.552 13.4066C567.864 11.9658 568.635 10.6423 569.766 9.60344C570.897 8.56463 572.338 7.8572 573.907 7.57059C575.476 7.28398 577.103 7.43107 578.58 7.99327C580.058 8.55547 581.322 9.50751 582.21 10.729C583.099 11.9505 583.573 13.3866 583.573 14.8557C583.571 16.825 582.718 18.713 581.202 20.1055C579.685 21.498 577.63 22.2814 575.485 22.2836V22.2836ZM575.485 9.28483C574.285 9.28483 573.113 9.61156 572.115 10.2237C571.117 10.8358 570.34 11.7059 569.881 12.7238C569.422 13.7418 569.302 14.8619 569.536 15.9426C569.77 17.0232 570.347 18.0159 571.196 18.795C572.044 19.5741 573.125 20.1047 574.302 20.3196C575.478 20.5346 576.698 20.4243 577.807 20.0026C578.915 19.581 579.862 18.8669 580.529 17.9508C581.196 17.0347 581.551 15.9576 581.551 14.8557C581.55 13.3788 580.91 11.9628 579.773 10.9184C578.635 9.87404 577.093 9.28655 575.485 9.28483V9.28483Z" fill="#3F3D56"/>
<path d="M773.371 29.0941H771.348V508.602H773.371V29.0941Z" fill="#3F3D56"/>
<path d="M1016.53 264.851H867.906V283.42H1016.53V264.851Z" fill="#F0E3D8"/>
<path d="M1250.07 264.851H1101.45V283.42H1250.07V264.851Z" fill="#F0E3D8"/>
<path d="M1025.63 275.064H874.983V254.637H1025.63V275.064ZM877.005 273.207H1023.6V256.494H877.005V273.207Z" fill="#3F3D56"/>
<path d="M1016.53 408.766H867.906V427.336H1016.53V408.766Z" fill="#F0E3D8"/>
<path d="M1025.63 418.979H874.983V398.553H1025.63V418.979ZM877.005 417.123H1023.6V400.41H877.005V417.123Z" fill="#3F3D56"/>
<path d="M1250.58 334.951H868.411V353.521H1250.58V334.951Z" fill="#F0E3D8"/>
<path d="M1259.68 347.022H875.488V326.595H1259.68V347.022ZM877.51 345.165H1257.66V328.452H877.51V345.165Z" fill="#3F3D56"/>
<path d="M1259.17 275.064H1108.53V254.637H1259.17V275.064ZM1110.55 273.207H1257.15V256.494H1110.55V273.207Z" fill="#3F3D56"/>
<path d="M641.496 330.351C625.046 330.351 608.966 325.871 595.289 317.479C581.612 309.086 570.952 297.157 564.657 283.201C558.362 269.244 556.715 253.887 559.924 239.07C563.133 224.254 571.054 210.645 582.686 199.963C594.317 189.281 609.137 182.007 625.27 179.059C641.404 176.112 658.126 177.625 673.324 183.406C688.521 189.187 701.51 198.977 710.649 211.537C719.788 224.098 724.666 238.865 724.666 253.971C724.641 274.221 715.87 293.636 700.278 307.955C684.686 322.274 663.546 330.328 641.496 330.351ZM641.496 179.906C625.545 179.906 609.952 184.25 596.689 192.389C583.427 200.527 573.09 212.094 566.985 225.628C560.881 239.162 559.284 254.054 562.396 268.421C565.508 282.788 573.189 295.985 584.468 306.343C595.747 316.702 610.117 323.756 625.762 326.613C641.406 329.471 657.622 328.004 672.359 322.399C687.096 316.793 699.692 307.3 708.553 295.12C717.415 282.94 722.145 268.62 722.145 253.971C722.121 234.335 713.616 215.509 698.497 201.624C683.377 187.739 662.878 179.929 641.496 179.906Z" fill="#3F3D56"/>
<path d="M1299.29 861.536H942.671V863.851H1299.29V861.536Z" fill="#3F3D56"/>
</g>
<defs>
<clipPath id="clip0">
<rect width="1356" height="874" fill="white"/>
</clipPath>
</defs>
</svg>
