<svg width="60" height="60" viewBox="0 0 60 60" fill="none" xmlns="http://www.w3.org/2000/svg">
<path d="M47.5 0H12.5C5.5975 0 0 5.5975 0 12.5V47.5C0 54.4025 5.5975 60 12.5 60H47.5C54.405 60 60 54.4025 60 47.5V12.5C60 5.5975 54.405 0 47.5 0ZM47.1525 23.0925C47.675 34.635 39.0675 47.505 23.8275 47.505C19.1925 47.505 14.88 46.1475 11.2475 43.8175C15.6025 44.33 19.9475 43.1225 23.3975 40.42C19.805 40.3525 16.775 37.98 15.7325 34.72C17.02 34.965 18.285 34.8925 19.4375 34.58C15.49 33.7875 12.7675 30.2325 12.855 26.43C13.96 27.045 15.2275 27.415 16.57 27.4575C12.9175 25.015 11.8825 20.19 14.03 16.5C18.0775 21.465 24.125 24.7325 30.945 25.075C29.7475 19.9425 33.645 15 38.9425 15C41.3 15 43.435 15.995 44.93 17.5925C46.8 17.225 48.5575 16.5425 50.145 15.6025C49.53 17.52 48.23 19.1275 46.5375 20.1425C48.1975 19.9425 49.78 19.5025 51.25 18.85C50.1525 20.49 48.76 21.935 47.1525 23.0925Z" fill="#8AA0AA"/>
</svg>
